<svg width="957" height="636" viewBox="0 0 957 636" fill="none" xmlns="http://www.w3.org/2000/svg">
<g clip-path="url(#clip0_4_58)">
<rect width="100" height="100" rx="50" fill="#F2F2F2"/>
<rect x="123" width="600" height="43" rx="6" fill="#F2F2F2"/>
<rect x="123" y="50" width="120" height="30" rx="6" fill="#F2F2F2"/>
<rect x="133" y="50" width="100" height="29" rx="6" fill="#F2F2F2"/>
<rect x="252" y="50" width="120" height="30" rx="6" fill="#F2F2F2"/>
<rect x="262" y="50" width="100" height="29" rx="6" fill="#F2F2F2"/>
<rect x="381" y="50" width="120" height="30" rx="6" fill="#F2F2F2"/>
<rect x="391" y="50" width="100" height="29" rx="6" fill="#F2F2F2"/>
<rect x="15" y="131" width="942" height="400" rx="6" fill="#F2F2F2"/>
<rect x="93" y="566" width="364" height="70" rx="6" fill="#F2F2F2"/>
<rect x="593" y="566" width="364" height="70" rx="6" fill="#F2F2F2"/>
<rect x="15" y="566" width="70" height="70" rx="6" fill="#F2F2F2"/>
<rect x="515" y="566" width="70" height="70" rx="6" fill="#F2F2F2"/>
<rect x="887" y="2" width="70" height="70" rx="6" fill="#F2F2F2"/>
</g>
<rect x="0.5" y="0.5" width="956" height="635" stroke="black"/>
<defs>
<clipPath id="clip0_4_58">
<rect width="957" height="636" fill="white"/>
</clipPath>
</defs>
</svg>
